PathFileType	4	(X/Y/Z)	Kaydara																																																																																																																									
DataRate	CameraRate	NumFrames	NumMarkers	Units	OrigDataRate	OrigDataStartFrame	OrigNumFrames																																																																																																																					
30	30	4	41	mm	30	88	349																																																																																																																					
Frame#	Time	EMLA_LFHD			EMLA_RFHD			EMLA_LBHD			EMLA_RBHD			EMLA_LFTShould			EMLA_RFTShould			EMLA_LRRShould			EMLA_RRRShould			EMLA_T10			EMLA_STRN			EMLA_TRUN			EMLA_LSHO			EMLA_LUPA			EMLA_LELB			EMLA_LFRM			EMLA_LWRA			EMLA_LWRB			EMLA_LFIN			EMLA_RSHO			EMLA_RUPA			EMLA_RELB			EMLA_RFRM			EMLA_RWRA			EMLA_RWRB			EMLA_RFIN			EMLA_LFWT			EMLA_RFWT			EMLA_LBWT			EMLA_RBWT			EMLA_LTHI			EMLA_LKNE			EMLA_LSHN			EMLA_LANK			EMLA_LHEE			EMLA_LTOE			EMLA_RTHI			EMLA_RKNE			EMLA_RSHN			EMLA_RANK			EMLA_RHEE			EMLA_RTOE		
		X1	Y1	Z1	X2	Y2	Z2	X3	Y3	Z3	X4	Y4	Z4	X5	Y5	Z5	X6	Y6	Z6	X7	Y7	Z7	X8	Y8	Z8	X9	Y9	Z9	X10	Y10	Z10	X11	Y11	Z11	X12	Y12	Z12	X13	Y13	Z13	X14	Y14	Z14	X15	Y15	Z15	X16	Y16	Z16	X17	Y17	Z17	X18	Y18	Z18	X19	Y19	Z19	X20	Y20	Z20	X21	Y21	Z21	X22	Y22	Z22	X23	Y23	Z23	X24	Y24	Z24	X25	Y25	Z25	X26	Y26	Z26	X27	Y27	Z27	X28	Y28	Z28	X29	Y29	Z29	X30	Y30	Z30	X31	Y31	Z31	X32	Y32	Z32	X33	Y33	Z33	X34	Y34	Z34	X35	Y35	Z35	X36	Y36	Z36	X37	Y37	Z37	X38	Y38	Z38	X39	Y39	Z39	X40	Y40	Z40	X41	Y41	Z41
																																																																																																																												
88	2.91	238.74027	1635.87982	-1583.2811	68.42313	1612.69257	-1588.17337	256.51459	1630.98129	-1732.46216	63.19384	1607.58728	-1740.03647	263.45413	1396.99661	-1648.31055	115.63532	1381.44119	-1634.48654	244.11913	1451.56906	-1793.69064	86.31871	1434.91302	-1777.88086	179.45196	1276.20094	-1843.13171	195.1173	1322.00775	-1607.54333	195.02012	1217.79007	-1593.8707	384.59217	1425.66757	-1708.05893	442.00172	1243.8517	-1736.83029	456.15448	1099.67758	-1748.39676	456.97483	964.79515	-1750.04883	378.46416	814.97253	-1674.85626	433.57475	800.48164	-1738.1424	429.83025	763.42506	-1678.80142	-15.32706	1410.15411	-1687.39594	-64.83147	1211.89011	-1683.37067	-75.60074	1069.48898	-1700.88623	-74.69747	967.91817	-1705.1149	9.41032	808.05527	-1612.73682	-48.54328	789.3515	-1674.7641	-50.09032	757.95113	-1616.58524	299.34132	980.87929	-1639.29108	63.74028	984.47937	-1621.03317	247.13833	1008.30856	-1834.84222	73.32053	1012.58316	-1808.84796	303.50744	733.11256	-1852.4118	338.23601	528.52894	-1842.88788	310.60328	351.3295	-1905.0943	296.78949	228.12672	-2050.27618	221.15452	188.49236	-2129.05853	256.68941	72.60427	-1980.69107	45.95853	693.21045	-1773.61908	48.93995	504.86843	-1672.36465	115.74535	291.84082	-1633.6824	87.88286	117.92501	-1677.25433	140.64077	67.17587	-1730.0177	135.58362	68.33911	-1525.81085
89	2.943	231.15902	1636.82693	-1568.40363	61.21556	1610.95032	-1572.9541	248.76711	1631.73096	-1717.48627	56.18876	1604.98398	-1724.54437	258.55688	1397.39029	-1633.78571	111.01767	1381.10977	-1618.5376	237.59741	1451.02859	-1779.17542	80.17159	1433.74344	-1761.84921	173.33593	1275.21797	-1827.40601	190.92218	1322.12494	-1592.11807	191.24506	1217.88483	-1578.08273	378.87714	1426.50803	-1694.8909	437.46891	1244.96758	-1723.46146	453.23502	1101.18019	-1734.44244	453.62156	965.61989	-1733.06961	375.58941	818.16109	-1652.93152	429.6249	801.69464	-1716.73279	426.65459	766.30623	-1656.31699	-20.56483	1409.16245	-1670.56366	-69.62997	1210.85258	-1663.13354	-80.15985	1068.05008	-1678.04001	-78.35456	966.0437	-1679.78714	8.99847	809.86938	-1584.02802	-49.56597	788.65974	-1644.74121	-49.97475	758.96614	-1585.71243	295.40028	980.68222	-1623.16437	58.20501	985.28473	-1599.15665	242.13484	1006.6922	-1818.5022	68.35145	1012.65785	-1790.88867	302.24476	727.11319	-1828.862	345.11509	525.97324	-1814.53522	316.70471	350.81814	-1882.23969	299.17912	235.56587	-2033.06396	221.57427	201.74259	-2111.08231	256.27634	72.08313	-1976.11923	42.14461	695.24788	-1762.02087	45.74237	504.39091	-1664.74121	114.21329	291.31926	-1630.05737	87.51311	117.79355	-1676.22833	140.45049	67.60058	-1729.98459	136.01539	68.16889	-1525.82199
90	2.977	224.15098	1637.08359	-1553.91586	54.77799	1608.44864	-1557.97546	241.47123	1632.46521	-1703.06015	49.35037	1602.6207	-1709.74396	254.26344	1397.38312	-1620.2742	107.05673	1380.16907	-1603.34564	231.4316	1450.26764	-1765.58609	74.33956	1432.30591	-1746.24237	167.30316	1274.03473	-1812.68707	187.55524	1321.6655	-1577.69714	188.41894	1217.43187	-1563.44788	373.79177	1426.74637	-1683.05664	433.12462	1245.09827	-1711.3591	450.33283	1101.78169	-1721.34109	450.29022	965.60921	-1716.21353	373.70541	821.41205	-1629.17465	425.51491	802.35977	-1694.20593	424.42741	769.05373	-1632.63641	-25.23163	1407.37381	-1654.13483	-74.25273	1209.12506	-1642.50702	-84.4072	1066.1142	-1655.242	-81.73412	963.7558	-1654.41589	9.00938	811.49696	-1555.39719	-50.36505	787.81586	-1614.70871	-49.4603	759.84947	-1554.66415	292.27392	980.43694	-1608.72116	57.8764	983.46573	-1588.12225	236.93682	1004.25491	-1803.94211	63.40775	1012.21748	-1773.88885	302.17976	720.1812	-1804.3103	351.62872	522.13627	-1780.68893	322.92561	350.59467	-1855.35538	303.21758	244.79441	-2012.50839	224.7332	218.07674	-2090.46249	257.481	73.69697	-1970.42847	37.51877	696.99699	-1749.92035	42.81146	504.13757	-1657.07565	112.721	290.69281	-1626.69235	86.87467	117.54293	-1675.13123	140.06476	68.03275	-1730.01358	136.28918	68.07834	-1525.98495
91	3.01	217.94891	1637.05704	-1540.02106	49.16049	1605.75119	-1543.55682	234.82288	1633.11127	-1689.30939	43.11645	1600.22629	-1695.38788	250.40298	1396.91757	-1607.90314	103.86964	1378.90045	-1588.88443	225.49425	1449.53156	-1752.97791	68.76155	1430.93277	-1731.14685	161.44072	1272.99217	-1798.85956	184.84699	1320.89081	-1564.37347	186.42117	1216.75797	-1549.9704	369.10191	1426.78619	-1672.53265	429.01134	1244.80942	-1699.63669	447.51686	1101.9696	-1708.29529	447.13528	965.44083	-1698.99017	372.34097	824.95186	-1604.82574	421.91551	803.19	-1670.84747	422.64351	772.07474	-1608.04733	-29.29348	1405.49164	-1637.75665	-77.8237	1207.39197	-1622.55783	-88.0043	1064.10141	-1632.4765	-84.53276	961.65192	-1629.0976	9.16957	812.96066	-1527.3233	-50.83366	787.00706	-1585.10406	-48.80229	760.89859	-1524.25629	289.22726	980.28824	-1595.43488	55.13311	983.19923	-1571.92307	232.32559	1001.66008	-1790.48019	59.0865	1011.4241	-1758.27423	303.58067	713.21899	-1778.69781	357.12807	518.68092	-1743.93127	328.04394	351.77803	-1824.64874	307.61524	255.22434	-1987.28729	229.22918	235.37514	-2064.82544	259.83128	77.71012	-1961.13068	33.53614	698.26859	-1738.41339	40.11643	503.60535	-1649.65256	111.6091	289.91907	-1622.97546	86.33839	117.3617	-1674.12201	139.78178	68.54397	-1730.0238	136.48607	67.99747	-1526.10672
